<?xml version="1.0" standalone="no"?>
<!DOCTYPE svg PUBLIC "-//W3C//DTD SVG 20010904//EN"
 "http://www.w3.org/TR/2001/REC-SVG-20010904/DTD/svg10.dtd">
<svg version="1.0" xmlns="http://www.w3.org/2000/svg"
 width="100.000000pt" height="100.000000pt" viewBox="0 0 100.000000 100.000000"
 preserveAspectRatio="xMidYMid meet">

<g transform="translate(0.000000,100.000000) scale(0.100000,-0.100000)"
fill="#000000" stroke="none">
<path d="M415 851 c-101 -27 -197 -107 -242 -200 -22 -47 -27 -74 -31 -164 -3
-67 -1 -107 5 -107 6 0 13 43 16 98 7 134 27 183 101 257 73 72 138 100 236
99 85 0 157 -25 215 -76 60 -53 91 -103 110 -175 21 -81 20 -136 -5 -158 -19
-17 -21 -17 -39 -1 -13 12 -20 35 -23 84 -6 80 -31 135 -86 184 -127 115 -327
75 -408 -82 -20 -39 -34 -230 -17 -230 6 0 12 42 15 93 8 144 60 219 177 254
70 20 143 6 203 -40 73 -56 111 -148 81 -194 -16 -23 -17 -24 -33 -6 -9 10
-22 37 -28 59 -23 81 -113 135 -197 120 -43 -8 -103 -59 -121 -103 -16 -38
-19 -183 -4 -183 6 0 10 28 10 63 0 80 13 123 47 159 78 82 224 38 248 -74 4
-18 19 -45 33 -60 24 -26 27 -27 44 -11 17 15 18 15 18 -4 0 -10 14 -32 30
-48 l30 -29 31 30 c31 29 31 30 26 110 -3 58 -12 95 -31 136 -32 67 -117 150
-183 179 -52 23 -178 34 -228 20z"/>
<path d="M438 585 c-19 -11 -25 -20 -21 -35 4 -14 0 -20 -11 -20 -12 0 -16
-10 -16 -40 0 -30 4 -40 16 -40 11 0 15 -6 11 -20 -4 -14 4 -25 26 -39 29 -18
32 -18 44 -3 12 16 14 16 26 0 12 -15 15 -15 44 3 22 14 30 25 26 39 -4 14 0
20 11 20 12 0 16 10 16 40 0 30 -4 40 -16 40 -11 0 -15 6 -11 20 7 28 -47 58
-69 39 -11 -9 -18 -9 -26 -1 -15 15 -17 15 -50 -3z m114 -38 c-1 -9 6 -22 18
-29 24 -15 26 -36 4 -52 -8 -6 -16 -20 -18 -31 -2 -17 -11 -20 -56 -20 -45 0
-54 3 -56 20 -2 11 -10 25 -18 31 -22 16 -20 37 5 52 11 7 18 19 16 27 -8 19
-4 20 55 19 43 -1 52 -4 50 -17z"/>
<path d="M480 503 c-10 -12 -11 -18 -2 -21 7 -2 12 -10 12 -18 0 -8 5 -14 10
-14 6 0 10 6 10 14 0 8 6 16 12 18 9 3 8 9 -4 21 -20 20 -19 20 -38 0z"/>
<path d="M150 255 l0 -85 35 0 c24 0 35 -5 35 -15 0 -11 12 -15 45 -15 32 0
45 4 45 14 0 9 12 16 33 18 l32 3 3 83 3 82 -116 0 -115 0 0 -85z m200 7 l0
-59 -90 0 -90 0 0 59 0 58 90 0 90 0 0 -58z m-70 -92 c0 -5 -7 -10 -15 -10 -8
0 -15 5 -15 10 0 6 7 10 15 10 8 0 15 -4 15 -10z"/>
<path d="M250 260 c0 -5 5 -10 10 -10 6 0 10 5 10 10 0 6 -4 10 -10 10 -5 0
-10 -4 -10 -10z"/>
<path d="M420 330 c0 -6 33 -10 80 -10 47 0 80 4 80 10 0 6 -33 10 -80 10 -47
0 -80 -4 -80 -10z"/>
<path d="M626 323 c-8 -28 -6 -157 3 -171 5 -9 36 -12 112 -10 l104 3 0 95 0
95 -107 3 c-95 2 -107 1 -112 -15z m204 -38 l0 -35 -90 0 -90 0 0 35 0 35 90
0 90 0 0 -35z m0 -90 l0 -35 -90 0 -90 0 0 35 0 35 90 0 90 0 0 -35z"/>
<path d="M680 285 c0 -8 5 -15 10 -15 6 0 10 7 10 15 0 8 -4 15 -10 15 -5 0
-10 -7 -10 -15z"/>
<path d="M730 284 c0 -8 5 -12 10 -9 6 3 10 10 10 16 0 5 -4 9 -10 9 -5 0 -10
-7 -10 -16z"/>
<path d="M770 285 c0 -8 5 -15 10 -15 6 0 10 7 10 15 0 8 -4 15 -10 15 -5 0
-10 -7 -10 -15z"/>
<path d="M680 195 c0 -8 5 -15 10 -15 6 0 10 7 10 15 0 8 -4 15 -10 15 -5 0
-10 -7 -10 -15z"/>
<path d="M730 194 c0 -8 5 -12 10 -9 6 3 10 10 10 16 0 5 -4 9 -10 9 -5 0 -10
-7 -10 -16z"/>
<path d="M770 195 c0 -8 5 -15 10 -15 6 0 10 7 10 15 0 8 -4 15 -10 15 -5 0
-10 -7 -10 -15z"/>
<path d="M423 288 c2 -7 14 -13 27 -13 13 0 25 6 28 13 2 8 -7 12 -28 12 -21
0 -30 -4 -27 -12z"/>
<path d="M500 284 c0 -11 9 -14 37 -12 52 4 56 28 4 28 -30 0 -41 -4 -41 -16z"/>
<path d="M420 240 c0 -6 28 -10 65 -10 37 0 65 4 65 10 0 6 -28 10 -65 10 -37
0 -65 -4 -65 -10z"/>
</g>
</svg>
